<svg width="12" height="8" viewBox="0 0 12 8" fill="none" xmlns="http://www.w3.org/2000/svg">
<path d="M1 3.31531C0.723858 3.31531 0.5 3.53917 0.5 3.81531C0.5 4.09145 0.723858 4.31531 1 4.31531V3.31531ZM11.8536 4.16886C12.0488 3.9736 12.0488 3.65702 11.8536 3.46175L8.67157 0.279774C8.47631 0.0845115 8.15973 0.0845115 7.96447 0.279774C7.7692 0.475036 7.7692 0.791618 7.96447 0.986881L10.7929 3.81531L7.96447 6.64373C7.7692 6.839 7.7692 7.15558 7.96447 7.35084C8.15973 7.5461 8.47631 7.5461 8.67157 7.35084L11.8536 4.16886ZM1 4.31531H11.5V3.31531H1V4.31531Z" fill="black"/>
</svg>
