<svg width="9" height="12" viewBox="0 0 9 12" fill="none" xmlns="http://www.w3.org/2000/svg">
<path fill-rule="evenodd" clip-rule="evenodd" d="M6.52953 8.34806C7.20461 8.77815 7.90228 9.17172 8.61953 9.52706C8.69681 9.55784 8.76684 9.60436 8.82519 9.66365C8.88353 9.72295 8.9289 9.79372 8.95843 9.87149C8.98796 9.94926 9.00101 10.0323 8.99673 10.1154C8.99244 10.1985 8.9709 10.2797 8.93353 10.3541L8.81454 10.7711C8.78453 10.9257 8.7168 11.0705 8.61736 11.1926C8.51792 11.3147 8.38985 11.4104 8.24453 11.4711C7.77789 11.7391 7.26611 11.9194 6.73452 12.0031C5.28652 12.0331 4.00653 10.8241 3.11053 9.81306C2.53865 9.17124 2.03059 8.47529 1.59353 7.73506C1.16171 6.99494 0.803661 6.21419 0.524528 5.40406C0.082528 4.13406 -0.341469 2.43806 0.408531 1.21806C0.75012 0.805858 1.16469 0.460094 1.63152 0.198061C1.75944 0.104452 1.90815 0.0432672 2.0649 0.0197542C2.22166 -0.00375891 2.3818 0.0110993 2.53155 0.0630586L2.95855 0.170057C3.04114 0.178827 3.12112 0.204026 3.19384 0.244169C3.26655 0.284312 3.33052 0.33859 3.38195 0.40381C3.43338 0.469031 3.47126 0.543878 3.49334 0.623949C3.51542 0.704019 3.52125 0.787694 3.51052 0.870058C3.50352 1.79706 3.48954 2.46206 3.52154 3.22406C3.53354 3.54006 3.40954 3.58506 3.12154 3.69606L2.65453 3.87606C2.57867 3.8875 2.50604 3.9146 2.44122 3.95563C2.37639 3.99666 2.3208 4.05074 2.27801 4.11441C2.23521 4.17808 2.20616 4.24996 2.19265 4.32548C2.17914 4.401 2.18149 4.4785 2.19955 4.55306C2.5472 6.20724 3.42492 7.70288 4.69955 8.81306C4.75587 8.86603 4.82242 8.90692 4.89513 8.93322C4.96784 8.95952 5.04516 8.97067 5.12234 8.96599C5.19951 8.96131 5.2749 8.94089 5.34389 8.90599C5.41289 8.87109 5.47402 8.82245 5.52352 8.76306L5.91454 8.45606C5.9477 8.40812 5.99006 8.36725 6.03918 8.33586C6.08829 8.30446 6.14318 8.28316 6.20061 8.2732C6.25805 8.26324 6.31689 8.26482 6.37371 8.27784C6.43053 8.29087 6.48418 8.31508 6.53155 8.34906L6.52953 8.34806Z" fill="#222222"/>
</svg>
