<svg width="59" height="54" viewBox="0 0 59 54" fill="none" xmlns="http://www.w3.org/2000/svg">
<path fill-rule="evenodd" clip-rule="evenodd" d="M46 35H16.6L8.60001 42.289C8.24537 42.5884 7.8249 42.7995 7.373 42.9052C6.9211 43.0109 6.45061 43.0081 6 42.897V35H2C1.46957 35 0.960858 34.7893 0.585785 34.4142C0.210712 34.0391 0 33.5304 0 33V2C0 1.46957 0.210712 0.960858 0.585785 0.585785C0.960858 0.210712 1.46957 0 2 0H46C46.5304 0 47.0391 0.210712 47.4142 0.585785C47.7893 0.960858 48 1.46957 48 2V33C48 33.5304 47.7893 34.0391 47.4142 34.4142C47.0391 34.7893 46.5304 35 46 35ZM46 2H2V33H8V39.716C8.2473 39.7153 8.49019 39.6504 8.70491 39.5277C8.91963 39.405 9.09884 39.2287 9.22501 39.016L15.9 33H46V2Z" fill="#122C50"/>
<path fill-rule="evenodd" clip-rule="evenodd" d="M57 45H53V52.948C52.5874 53.0775 52.1484 53.0983 51.7255 53.0082C51.3025 52.9182 50.91 52.7204 50.586 52.434L42.271 45H17C16.7348 45 16.4804 44.8946 16.2929 44.7071C16.1054 44.5196 16 44.2652 16 44C16 43.7348 16.1054 43.4804 16.2929 43.2929C16.4804 43.1054 16.7348 43 17 43H43.107L49.595 48.8C49.7537 49.0197 49.9664 49.1946 50.2125 49.308C50.4587 49.4213 50.7299 49.4692 51 49.447V43H57V12H53C52.7348 12 52.4804 11.8946 52.2929 11.7071C52.1054 11.5196 52 11.2652 52 11C52 10.7348 52.1054 10.4804 52.2929 10.2929C52.4804 10.1054 52.7348 10 53 10H57C57.5304 10 58.0391 10.2107 58.4142 10.5858C58.7893 10.9609 59 11.4696 59 12V43C59 43.5304 58.7893 44.0391 58.4142 44.4142C58.0391 44.7893 57.5304 45 57 45Z" fill="#122C50"/>
<path fill-rule="evenodd" clip-rule="evenodd" d="M31.7073 14.6939L23.7073 22.6859C23.5176 22.8742 23.2611 22.9798 22.9938 22.9798C22.7266 22.9798 22.4701 22.8742 22.2803 22.6859L17.2873 17.7029C17.1069 17.5121 17.0081 17.2585 17.0118 16.9959C17.0156 16.7333 17.1216 16.4826 17.3074 16.297C17.4933 16.1115 17.7441 16.0058 18.0067 16.0024C18.2693 15.999 18.5228 16.0982 18.7133 16.2789L23.0003 20.5529L30.2863 13.2719C30.4774 13.0961 30.729 13.0009 30.9886 13.0063C31.2482 13.0117 31.4957 13.1173 31.6792 13.301C31.8628 13.4847 31.9682 13.7322 31.9734 13.9918C31.9787 14.2514 31.8833 14.503 31.7073 14.6939Z" fill="#122C50"/>
</svg>
